<svg xmlns="http://www.w3.org/2000/svg" width="320" height="320">
  <path fill="rgb(255,249,147)" d="M294.286 127.125c2.427-39.469-25.733-47.838-50.085-49.718l-4.791 94.815c24.418.585 53.275-4.855 54.84-44.367.004-.126.003-.241.007-.365.009-.125.021-.24.029-.365z"/>
  <path fill="rgb(253,219,94)" d="m240.607 148.535-1.197 23.687c24.418.585 53.275-4.856 54.84-44.368.004-.125.004-.24.007-.365.009-.124.021-.238.029-.364a103.5 103.5 0 0 0 .163-9.695c-5.53 26.872-32.533 31.361-53.842 31.105z"/>
  <path fill="none" stroke="rgb(0,0,0)" stroke-linecap="round" stroke-linejoin="round" stroke-width="8" d="M39.311-9.2C52.17 62.073 2.726 83.236-41.168 91.865L-70.169-79.578c44.29-6.288 97.958-2.477 109.255 69.06.037.228.061.438.094.663.043.223.09.428.131.655z" transform="matrix(.53307 .11812 -.11812 .53307 272.207 128.115)"/>
  <path fill="rgb(255,249,147)" d="M33.192 111.102c1.564-39.512 30.36-47.203 54.779-46.618l-4.792 94.815c-24.352-1.88-52.45-8-50.024-47.468.008-.126.02-.24.029-.364.004-.124.003-.24.008-.365z"/>
  <path fill="rgb(253,219,94)" d="M84.377 135.612 83.18 159.3c-24.353-1.88-52.452-8-50.025-47.469.009-.125.02-.24.03-.364.004-.124.002-.24.007-.365.138-3.479.417-6.684.816-9.661 2.793 27.291 29.143 32.278 50.369 34.17z"/>
  <path fill="none" stroke="rgb(0,0,0)" stroke-linecap="round" stroke-linejoin="round" stroke-width="8" d="M-39.087 10.518C-27.788 82.056 24.88 81.865 69.17 75.577L40.169-95.865C-3.725-87.236-52.17-62.074-39.31 9.199c.041.227.088.433.13.656.034.226.057.435.093.663z" transform="matrix(.53307 .11812 -.11812 .53307 55.234 110.842)"/>
  <path fill="rgb(64,134,234)" d="M166.782 15.496c-16.944-.633-25.811 2.397-29.52 38.502l56.973 2.743c-.663-35.164-10.779-40.621-27.453-41.245z"/>
  <path fill="none" stroke="rgb(0,0,0)" stroke-linecap="round" stroke-linejoin="round" stroke-width="8" d="M-5.384-19.298c-31.045-.713-47.204 5.071-53.043 71.289L45.98 55.509C43.838-8.87 25.169-18.596-5.384-19.298z" transform="matrix(.54595 .00787 -.00787 .54594 169.57 26.074)"/>
  <g>
    <path fill="rgb(253,115,94)" d="M265.117 118.083c2.534-58.422-16.005-80.79-86.002-86.178 0 0-8.174-.588-12.056-.743l-.088-.003-12.163-.309c-70.2-.693-90.606 19.987-93.14 78.41l-.012.306-.014.307c-2.534 58.422 16.004 80.791 86 86.179a64513.44 64513.44 0 0 0 12.232.75c3.881.18 12.076.304 12.076.304 70.201.693 90.606-19.987 93.14-78.41l.011-.306.016-.307z"/>
    <path fill="rgb(210,66,66)" d="M79.94 111.816c-1.9 43.807 13.36 60.64 70.738 64.891 0 0 6.7.465 9.883.594l.07.003 9.97.267c57.53.732 74.19-14.715 76.09-58.523.004-.077.003-.153.008-.23.005-.077.009-.152.012-.23 1.9-43.807-13.36-60.64-70.737-64.892l-9.955-.596-.072-.003c-3.18-.148-9.897-.265-9.897-.265-57.53-.731-74.19 14.716-76.09 58.524-.003.077-.004.153-.008.23-.005.076-.008.152-.012.23z"/>
    <path fill="rgb(0,0,0)" d="M246.997 111.979c-1.9 43.807-18.559 59.255-76.09 58.524 0 0-6.715-.117-9.896-.265-.024-.002-.049-.001-.072-.003l-9.954-.596c-57.378-4.253-72.638-21.085-70.738-64.893l.011-.23.01-.23c1.9-43.807 18.558-59.254 76.09-58.523a44936.66 44936.66 0 0 0 10.04.271c3.182.128 9.882.593 9.882.593 57.378 4.252 72.638 21.084 70.737 64.892-.002.077-.007.154-.01.23l-.01.23z"/>
    <g>
      <path fill="rgb(255,249,147)" d="M160.713 180.548c-9.133-.396-17.015 6.22-18.43 15.045 1.755.163 3.536.319 5.36.459 0 0 8.174.586 12.056.742l.088.003 12.164.309c1.98.02 3.915.02 5.817.005-.655-8.904-7.929-16.168-17.055-16.563z"/>
    </g>
    <g>
      <path fill="none" stroke="rgb(0,0,0)" stroke-linecap="round" stroke-linejoin="round" stroke-width="8" d="M186.481 1.011c.904-107.098-34.459-146.856-162.923-152.244 0 0-14.999-.553-22.116-.589l-.161-.001-22.282.213c-128.538 3.219-164.566 42.376-165.47 149.474l-.002.561-.007.563c-.903 107.098 34.458 146.858 162.923 152.245a118154.416 118154.416 0 0 0 22.436.591c7.116.083 22.123-.215 22.123-.215 128.539-3.219 164.566-42.375 165.469-149.474.002-.19.002-.375.002-.561.004-.187.006-.373.008-.563z" transform="matrix(.54567 .01906 -.01905 .54566 163.379 113.978)"/>
    </g>
  </g>
  <g>
    <path fill="rgb(255,255,255)" d="M162.316 131.62c8.958.59 16.841-5.027 19.193-13.056l-6.456-.328-12.22-.621-12.593-.64-5.263-.267c1.279 8.268 8.381 14.323 17.34 14.912z"/>
    <path fill="none" stroke="rgb(255,255,255)" stroke-width="8" d="M-19.097.681A8223.956 8223.956 0 0 0 21.063-.65" transform="matrix(.54432 .04278 -.04278 .54432 162.034 120.192)"/>
  </g>
  <g>
    <path fill="none" stroke="rgb(255,249,147)" stroke-linecap="round" stroke-linejoin="round" stroke-width="3" d="M-26.522-.134 20.45-.366" transform="matrix(.5452 .02968 -.02968 .54519 121.124 114.284)"/>
    <path fill="rgb(255,249,147)" d="m129.138 93.233-17.426-.893-1.082 21.142 17.425.892 1.083-21.141z"/>
    <g>
      <path fill="none" stroke="rgb(255,249,147)" stroke-linecap="round" stroke-linejoin="round" stroke-width="3" d="M-26.522-.134 20.45-.366" transform="matrix(.5452 .02968 -.02968 .54519 209.71 119.106)"/>
      <path fill="rgb(255,249,147)" d="m217.724 98.055-17.426-.892-1.082 21.142 17.425.892 1.083-21.142z"/>
    </g>
  </g>
  <g opacity=".16">
    <g opacity="1">
      <path fill="rgb(0,5,10)" d="M221.235 307.326c0 4.003-27.907 7.248-62.332 7.248-34.426 0-62.333-3.245-62.333-7.248s27.907-7.249 62.333-7.249c34.425 0 62.332 3.246 62.332 7.249z"/>
    </g>
  </g>
  <g>
    <path fill="rgb(0,0,0)" d="m126.992 263.806 3.506 1.61a4.223 4.223 0 0 0 5.547-2.167 4.223 4.223 0 0 0-2.167-5.547l-3.506-1.61a4.223 4.223 0 0 0-5.546 2.168 4.222 4.222 0 0 0 2.166 5.546zM128.98 252.469l3.477-1.672a4.223 4.223 0 0 0 1.872-5.653 4.223 4.223 0 0 0-5.654-1.871l-3.476 1.67a4.224 4.224 0 0 0-1.871 5.654 4.224 4.224 0 0 0 5.653 1.872zM119.421 247.325l2.406-3.016a4.223 4.223 0 0 0-.77-5.904 4.222 4.222 0 0 0-5.904.769l-2.405 3.015a4.223 4.223 0 0 0 .768 5.905 4.223 4.223 0 0 0 5.905-.77zM112.738 266.585l1.452 4.372c.917 2.61 3.803 3.996 6.412 3.078 2.61-.917 3.995-3.803 3.078-6.412l-1.452-4.373c-.917-2.61-3.804-3.994-6.413-3.077-2.61.916-3.995 3.803-3.077 6.412z"/>
    <g>
      <path fill="none" stroke="rgb(0,0,0)" stroke-linecap="round" stroke-width="40" d="M-68.975 152.547c52.488-10.686 34.274-55.705-30.581-57.679" transform="matrix(-.62386 .01334 .01334 .62386 71.431 161.4)"/>
      <path fill="none" stroke="rgb(63,135,233)" stroke-linecap="round" stroke-width="25.8" d="M-68.975 152.547c52.488-10.686 34.274-55.705-30.581-57.679" transform="matrix(-.62386 .01334 .01334 .62386 71.431 161.4)"/>
      <path fill="none" stroke="rgb(0,0,0)" stroke-linecap="round" stroke-width="32.7" d="M-48.285 144.547a32.19 32.19 0 0 0 1.891-1.401" transform="matrix(-.62386 .01334 .01334 .62386 71.431 161.4)"/>
      <path fill="none" stroke="rgb(63,134,233)" stroke-linecap="round" stroke-width="26.4" d="M-48.285 144.547c8.097-5.562 11.087-12.753 9.481-19.929" transform="matrix(-.62386 .01334 .01334 .62386 71.431 161.4)"/>
      <path fill="none" stroke="rgb(0,0,0)" stroke-linecap="round" stroke-width="32.7" d="M-45.608 112.997a36.809 36.809 0 0 0-1.702-1.625" transform="matrix(-.62386 .01334 .01334 .62386 71.431 161.4)"/>
      <path fill="none" stroke="rgb(63,134,233)" stroke-linecap="round" stroke-width="26.4" d="M-45.583 113.022c-3.887-3.967-9.306-7.607-16.147-10.573" transform="matrix(-.62386 .01334 .01334 .62386 71.431 161.4)"/>
      <path fill="none" stroke="rgb(0,0,0)" stroke-linecap="round" stroke-width="32.7" d="M-75.728 97.871c-.755-.179-1.521-.351-2.297-.516" transform="matrix(-.62386 .01334 .01334 .62386 71.431 161.4)"/>
      <path fill="none" stroke="rgb(63,134,233)" stroke-linecap="round" stroke-width="26.4" d="M-75.751 97.866c-6.901-1.634-14.69-2.689-23.31-2.982" transform="matrix(-.62386 .01334 .01334 .62386 71.431 161.4)"/>
      <path fill="rgb(10,13,17)" fill-opacity=".5" d="M87.417 230.559c7.536 52.785 40.848-19.537 57.27-17.325 2.429 16.884-11.078 14.902-11.078 14.902s-8.312 28.855-27.366 35.521c-10.542-.823-24.376-15.653-18.826-33.098z"/>
    </g>
  </g>
  <g>
    <path fill="rgb(0,0,0)" d="m186.326 265.425-3.69 1.128a4.223 4.223 0 0 1-5.208-2.887 4.223 4.223 0 0 1 2.887-5.208l3.69-1.128a4.223 4.223 0 0 1 5.207 2.887 4.222 4.222 0 0 1-2.886 5.208zM185.867 253.924l-3.223-2.12a4.223 4.223 0 0 1-1.101-5.852 4.223 4.223 0 0 1 5.852-1.101l3.223 2.12a4.224 4.224 0 0 1 1.1 5.852 4.224 4.224 0 0 1-5.851 1.101zM196.026 250.1l-1.982-3.309a4.223 4.223 0 0 1 1.55-5.75 4.222 4.222 0 0 1 5.75 1.55l1.981 3.31a4.223 4.223 0 0 1-1.549 5.75v-.001a4.223 4.223 0 0 1-5.75-1.55zM200.083 270.08l-2.023 4.14c-1.257 2.464-4.301 3.452-6.765 2.195-2.464-1.257-3.452-4.302-2.195-6.765l2.022-4.14c1.257-2.464 4.302-3.452 6.766-2.195 2.464 1.256 3.452 4.3 2.195 6.765z"/>
    <g>
      <path fill="none" stroke="rgb(0,0,0)" stroke-linecap="round" stroke-width="40" d="M-68.975 152.547c52.488-10.686 34.274-55.705-30.581-57.679" transform="matrix(.61652 .09639 -.09639 .61651 255.043 171.34)"/>
      <path fill="none" stroke="rgb(63,135,233)" stroke-linecap="round" stroke-width="25.8" d="M-68.975 152.547c52.488-10.686 34.274-55.705-30.581-57.679" transform="matrix(.61652 .09639 -.09639 .61651 255.043 171.34)"/>
      <path fill="none" stroke="rgb(0,0,0)" stroke-linecap="round" stroke-width="32.7" d="M-48.285 144.547a32.19 32.19 0 0 0 1.891-1.401" transform="matrix(.61652 .09639 -.09639 .61651 255.043 171.34)"/>
      <path fill="none" stroke="rgb(63,134,233)" stroke-linecap="round" stroke-width="26.4" d="M-48.285 144.547c8.097-5.562 11.087-12.753 9.481-19.929" transform="matrix(.61652 .09639 -.09639 .61651 255.043 171.34)"/>
      <path fill="none" stroke="rgb(0,0,0)" stroke-linecap="round" stroke-width="32.7" d="M-45.608 112.997a36.809 36.809 0 0 0-1.702-1.625" transform="matrix(.61652 .09639 -.09639 .61651 255.043 171.34)"/>
      <path fill="none" stroke="rgb(63,134,233)" stroke-linecap="round" stroke-width="26.4" d="M-45.583 113.022c-3.887-3.967-9.306-7.607-16.147-10.573" transform="matrix(.61652 .09639 -.09639 .61651 255.043 171.34)"/>
      <path fill="none" stroke="rgb(0,0,0)" stroke-linecap="round" stroke-width="32.7" d="M-75.728 97.871c-.755-.179-1.521-.351-2.297-.516" transform="matrix(.61652 .09639 -.09639 .61651 255.043 171.34)"/>
      <path fill="none" stroke="rgb(63,134,233)" stroke-linecap="round" stroke-width="26.4" d="M-75.751 97.866c-6.901-1.634-14.69-2.689-23.31-2.982" transform="matrix(.61652 .09639 -.09639 .61651 255.043 171.34)"/>
      <path fill="rgb(10,13,17)" fill-opacity=".5" d="M229.98 237.75c-14.505 51.31-37.879-24.807-54.449-24.804-4.658 16.409 8.992 16.246 8.992 16.246s4.391 29.705 22.387 38.852c10.558.59 26.245-12.264 23.07-30.294z"/>
    </g>
  </g>
  <g>
    <path fill="rgb(253,115,94)" d="m204.551 240.803-10.309-19.445c-4.978-9.171-10.346-12.847-20.142-13.456l-28.776-1.153c-9.813-.177-15.457 3.057-21.154 11.8l-11.832 18.558c-10.572 18.591 2.447 41.51 23.68 42.36l41.538 1.665c21.233.852 36.045-20.95 26.995-40.33z"/>
    <path fill="rgb(210,66,66)" d="m182.633 272.253-50.965-2.043c-14.777-.592-21.437-12.32-22.488-24.755-3.418 16.472 8.708 33.285 26.838 34.012l41.538 1.666c18.13.726 31.564-15.063 29.475-31.756-1.148 12.13-9.62 23.468-24.398 22.876z"/>
    <path fill="none" stroke="rgb(0,0,0)" stroke-linecap="round" stroke-linejoin="round" stroke-width="2.5" d="M-80.62-5.892 80.62 5.892" transform="matrix(.54567 -.01906 .01906 .54567 158.53 235.51)"/>
    <g>
      <path fill="rgb(255,249,147)" d="m146.202 223.975 25.458 1.02c4.764.192 8.195-4.518 6.553-8.994l-2.935-8c-.389-.035-.773-.073-1.177-.099l-28.776-1.153c-.47-.009-.922-.002-1.373.005l-3.562 7.73c-1.996 4.331 1.048 9.3 5.812 9.491z"/>
    </g>
    <g>
      <path fill="none" stroke="rgb(0,0,0)" stroke-linecap="round" stroke-linejoin="round" stroke-width="8" d="m-81.667-16.63 22.843-33.211c10.986-15.639 21.523-21.197 39.473-20.246l52.598 3.951c17.892 1.741 27.482 8.811 36.008 25.915L86.881-3.969c15.326 36.049-13.179 75.007-51.988 72.091l-75.925-5.701c-38.81-2.915-61.174-45.697-40.635-79.051z" transform="matrix(.54567 -.01906 .01906 .54567 157.219 244.624)"/>
    </g>
  </g>
  <g>
    <path fill="rgb(0,0,0)" d="m203.18 271.35 2.157-.02a3.784 3.784 0 0 0 3.737-3.81 3.784 3.784 0 0 0-3.809-3.736l-2.156.02a3.783 3.783 0 0 0-3.736 3.81 3.784 3.784 0 0 0 3.808 3.736zM203.929 262.652l2.155-.022a3.783 3.783 0 0 0 3.737-3.808 3.784 3.784 0 0 0-3.81-3.736l-2.155.021a3.784 3.784 0 0 0-3.736 3.808 3.785 3.785 0 0 0 3.809 3.737z"/>
    <g>
      <path fill="rgb(0,0,0)" d="m204.103 254.16 2.156-.02a3.783 3.783 0 0 0 3.736-3.81 3.784 3.784 0 0 0-3.809-3.735l-2.156.02a3.784 3.784 0 0 0-3.736 3.809 3.783 3.783 0 0 0 3.809 3.736z"/>
    </g>
  </g>
  <g>
    <path fill="rgb(0,0,0)" d="m112.974 269.446-2.34-.187a4.117 4.117 0 0 1-3.766-4.418 4.117 4.117 0 0 1 4.418-3.767l2.34.186a4.117 4.117 0 0 1 3.766 4.419 4.118 4.118 0 0 1-4.418 3.767zM112.823 259.946l-2.339-.186a4.117 4.117 0 0 1-3.766-4.418 4.117 4.117 0 0 1 4.418-3.767l2.338.187a4.117 4.117 0 0 1 3.767 4.418 4.118 4.118 0 0 1-4.418 3.766z"/>
    <g>
      <path fill="rgb(0,0,0)" d="m113.279 250.715-2.339-.186a4.117 4.117 0 0 1-3.767-4.418 4.117 4.117 0 0 1 4.418-3.766l2.34.186a4.117 4.117 0 0 1 3.766 4.418 4.117 4.117 0 0 1-4.418 3.766z"/>
    </g>
  </g>
</svg>